<svg xmlns="http://www.w3.org/2000/svg" width="80" height="80" viewBox="0 0 80 80"><path fill="#764857" d="M39.998 20c-11.043 0-19.998 9.181-19.998 20.506 0 9.06 5.729 16.746 13.678 19.458 1.001.187 1.315-.422 1.315-.965 0-.486.011-1.848 0-3.56-5.562 1.24-6.715-2.7-6.715-2.7-.909-2.37-2.219-3-2.219-3-1.815-1.271.136-1.248.136-1.248 2.007.146 3.064 2.114 3.064 2.114 1.784 3.132 4.68 2.227 5.818 1.703.183-1.325.7-2.229 1.272-2.741-4.441-.518-9.109-2.276-9.109-10.135 0-2.239.779-4.069 2.058-5.501-.207-.519-.894-2.604.197-5.429 0 0 1.678-.551 5.498 2.104 1.596-.456 3.308-.682 5.008-.69 1.699.008 3.41.234 5.007.69 3.819-2.654 5.497-2.104 5.497-2.104 1.089 2.825.403 4.911.198 5.429 1.279 1.432 2.057 3.262 2.057 5.501 0 7.88-4.678 9.611-9.134 10.117.718.635 1.37 1.865 1.37 3.778v5.676c0 .55.322 1.155 1.339.957 7.94-2.715 13.665-10.396 13.665-19.454 0-11.325-8.955-20.506-20.002-20.506z"/><circle stroke="#764857" stroke-width="2" stroke-miterlimit="10" cx="40" cy="40" r="39" fill="none"/></svg>