<svg xmlns="http://www.w3.org/2000/svg" width="80" height="80" viewBox="0 0 80 80"><circle stroke="#764857" stroke-width="2" stroke-miterlimit="10" cx="40" cy="40" r="39" fill="none"/><path fill="#764857" d="M30.097 57.5h-7.473v-25h7.473v25zm27.403 0h-7.474v-13.355c0-3.479-1.235-5.211-3.685-5.211-1.939 0-3.17.969-3.789 2.912v15.655h-7.472s.1-22.5 0-25h5.899l.455 5h.153c1.534-2.5 3.982-4.196 7.342-4.196 2.553 0 4.617.713 6.193 2.504 1.586 1.792 2.377 4.196 2.377 7.575v14.116z"/><ellipse fill="#764857" cx="26.36" cy="26.25" rx="3.862" ry="3.75"/></svg>