<svg xmlns="http://www.w3.org/2000/svg" width="80" height="80" viewBox="0 0 80 80"><path fill="#764857" d="M61.549 26.634c-1.586.703-3.289 1.179-5.078 1.392 1.823-1.092 3.229-2.826 3.888-4.891-1.709 1.013-3.602 1.75-5.615 2.146-1.614-1.718-3.912-2.792-6.454-2.792-4.884 0-8.842 3.959-8.842 8.842 0 .692.078 1.367.229 2.014-7.348-.368-13.863-3.888-18.224-9.237-.761 1.305-1.197 2.824-1.197 4.445 0 3.066 1.562 5.773 3.934 7.359-1.449-.046-2.813-.444-4.005-1.107l-.001.112c0 4.284 3.048 7.856 7.093 8.669-.741.203-1.523.311-2.33.311-.569 0-1.123-.055-1.663-.158 1.125 3.514 4.391 6.068 8.259 6.141-3.025 2.371-6.838 3.783-10.98 3.783-.713 0-1.417-.041-2.109-.123 3.914 2.51 8.561 3.973 13.554 3.973 16.264 0 25.158-13.473 25.158-25.157 0-.383-.009-.765-.026-1.144 1.723-1.248 3.224-2.804 4.409-4.578z"/><circle stroke="#764857" stroke-width="2" stroke-miterlimit="10" cx="40" cy="40" r="39" fill="none"/></svg>