<?xml version="1.0" encoding="utf-8"?>
<!-- Generator: Adobe Illustrator 16.0.4, SVG Export Plug-In . SVG Version: 6.00 Build 0)  -->
<!DOCTYPE svg PUBLIC "-//W3C//DTD SVG 1.1//EN" "http://www.w3.org/Graphics/SVG/1.1/DTD/svg11.dtd">
<svg version="1.1" id="Layer_1" xmlns="http://www.w3.org/2000/svg" xmlns:xlink="http://www.w3.org/1999/xlink" x="0px" y="0px"
	 width="80px" height="80px" viewBox="0 0 80 80" enable-background="new 0 0 80 80" xml:space="preserve">
<g>
	<path fill="#764857" d="M39.998,20C28.955,20,20,29.181,20,40.506c0,9.06,5.729,16.746,13.678,19.458
		c1.001,0.187,1.315-0.422,1.315-0.965c0-0.486,0.011-1.848,0-3.56c-5.562,1.24-6.715-2.7-6.715-2.7c-0.909-2.37-2.219-3-2.219-3
		c-1.815-1.271,0.136-1.248,0.136-1.248c2.007,0.146,3.064,2.114,3.064,2.114c1.784,3.132,4.68,2.227,5.818,1.703
		c0.183-1.325,0.7-2.229,1.272-2.741c-4.441-0.518-9.109-2.276-9.109-10.135c0-2.239,0.779-4.069,2.058-5.501
		c-0.207-0.519-0.894-2.604,0.197-5.429c0,0,1.678-0.551,5.498,2.104c1.596-0.456,3.308-0.682,5.008-0.69
		c1.699,0.008,3.41,0.234,5.007,0.69c3.819-2.654,5.497-2.104,5.497-2.104c1.089,2.825,0.403,4.911,0.198,5.429
		c1.279,1.432,2.057,3.262,2.057,5.501c0,7.88-4.678,9.611-9.134,10.117c0.718,0.635,1.37,1.865,1.37,3.778c0,2.564,0,5.003,0,5.676
		c0,0.55,0.322,1.155,1.339,0.957C54.275,57.245,60,49.564,60,40.506C60,29.181,51.045,20,39.998,20z"/>
</g>
<circle fill="none" stroke="#764857" stroke-width="2" stroke-miterlimit="10" cx="40" cy="40" r="39"/>
</svg>
