<?xml version="1.0" encoding="utf-8"?>
<!-- Generator: Adobe Illustrator 16.0.4, SVG Export Plug-In . SVG Version: 6.00 Build 0)  -->
<!DOCTYPE svg PUBLIC "-//W3C//DTD SVG 1.1//EN" "http://www.w3.org/Graphics/SVG/1.1/DTD/svg11.dtd">
<svg version="1.1" id="Layer_1" xmlns="http://www.w3.org/2000/svg" xmlns:xlink="http://www.w3.org/1999/xlink" x="0px" y="0px"
	 width="80px" height="80px" viewBox="0 0 80 80" enable-background="new 0 0 80 80" xml:space="preserve">
<path fill="#764857" d="M61.549,26.634c-1.586,0.703-3.289,1.179-5.078,1.392c1.823-1.092,3.229-2.826,3.888-4.891
	c-1.709,1.013-3.602,1.75-5.615,2.146c-1.614-1.718-3.912-2.792-6.454-2.792c-4.884,0-8.842,3.959-8.842,8.842
	c0,0.692,0.078,1.367,0.229,2.014c-7.348-0.368-13.863-3.888-18.224-9.237c-0.761,1.305-1.197,2.824-1.197,4.445
	c0,3.066,1.562,5.773,3.934,7.359c-1.449-0.046-2.813-0.444-4.005-1.107c-0.001,0.037-0.001,0.074-0.001,0.112
	c0,4.284,3.048,7.856,7.093,8.669c-0.741,0.203-1.523,0.311-2.33,0.311c-0.569,0-1.123-0.055-1.663-0.158
	c1.125,3.514,4.391,6.068,8.259,6.141c-3.025,2.371-6.838,3.783-10.98,3.783c-0.713,0-1.417-0.041-2.109-0.123
	c3.914,2.51,8.561,3.973,13.554,3.973c16.264,0,25.158-13.473,25.158-25.157c0-0.383-0.009-0.765-0.026-1.144
	C58.863,29.964,60.364,28.408,61.549,26.634z"/>
<circle fill="none" stroke="#764857" stroke-width="2" stroke-miterlimit="10" cx="40" cy="40" r="39"/>
</svg>
